<?xml version="1.0" encoding="utf-8"?>
<!-- Generator: Adobe Illustrator 24.2.3, SVG Export Plug-In . SVG Version: 6.00 Build 0)  -->
<svg version="1.1"
	 id="svg5" inkscape:version="1.1.1 (3bf5ae0d25, 2021-09-20)" sodipodi:docname="logo1.svg" xmlns:inkscape="http://www.inkscape.org/namespaces/inkscape" xmlns:sodipodi="http://sodipodi.sourceforge.net/DTD/sodipodi-0.dtd" xmlns:svg="http://www.w3.org/2000/svg"
	 xmlns="http://www.w3.org/2000/svg" xmlns:xlink="http://www.w3.org/1999/xlink" x="0px" y="0px" viewBox="0 0 512 512"
	 style="enable-background:new 0 0 512 512;" xml:space="preserve">
<style type="text/css">
	.st0{fill:#25E6C8;}
	.st1{fill:#163C70;}
	.st2{fill:#2BAAEC;}
</style>
<sodipodi:namedview  bordercolor="#666666" borderopacity="1.0" id="namedview7" inkscape:current-layer="layer1" inkscape:cx="255.51331" inkscape:cy="508.10646" inkscape:document-units="px" inkscape:pagecheckerboard="0" inkscape:pageopacity="0.0" inkscape:pageshadow="2" inkscape:window-height="703" inkscape:window-maximized="1" inkscape:window-width="1366" inkscape:window-x="0" inkscape:window-y="0" inkscape:zoom="1.0273438" pagecolor="#ffffff" showgrid="false">
	</sodipodi:namedview>
<defs>
	<inkscape:path-effect  effect="spiro" id="path-effect610" is_visible="true" lpeversion="1"></inkscape:path-effect>
	<inkscape:path-effect  effect="spiro" id="path-effect4936" is_visible="true" lpeversion="1"></inkscape:path-effect>
	<inkscape:path-effect  effect="spiro" id="path-effect56" is_visible="true" lpeversion="1"></inkscape:path-effect>
</defs>
<g id="layer1" inkscape:groupmode="layer" inkscape:label="RĂ©teg 1">
	<g id="g847" transform="matrix(1.0777941,0,0,1.0777941,-22.4787,-18.974996)">
		
			<path id="path54" inkscape:original-d="m 24.239003,200.72193 c 0,0 -14.229471,-23.22813 4.83746,-79.13336 19.06692,-55.905238 36.72503,-87.925196 51.0417,-81.339913 C 117.3782,57.387276 192.80536,7.222816 250.78914,57.751649 c 28.99189,25.264411 90.19521,59.164441 126.25497,123.032921 36.05975,63.86848 46.97597,157.70538 48.5503,222.17709 0.41314,16.92015 -9.19185,32.36031 -20.69991,46.36448 -10.17914,12.38703 -22.99967,24.55544 -35.9037,38.93666 -10.95409,0.5379 -13.86191,-11.50757 -20.79027,-25.50081 C 338.29344,442.75268 330.57085,398.00401 325.10482,385.7591 308.56304,348.70231 269.77839,280.85291 246.52988,256.61355 208.65914,217.12875 152.79001,200.1733 105.91858,171.95167 59.047133,143.73006 24.239003,200.72193 24.239003,200.72193 Z" inkscape:path-effect="#path-effect56" sodipodi:nodetypes="csssssscssssc" class="st0" d="
			M24.2,200.7c-3.2-26.4-1.6-53.3,4.8-79.1c3.9-15.9,9.7-31.4,18.1-45.5s19.4-26.7,33-35.9c25-17.1,57.2-21.5,87.1-16.8
			s57.9,18.2,83.5,34.3c50.1,31.5,93.2,73.9,126.3,123c21.9,32.5,39.5,68.1,48.9,106.1s10.4,78.4-0.3,116.1
			c-4.7,16.3-11.5,32.1-20.7,46.4c-9.6,14.9-21.8,28.1-35.9,38.9c-8.3-7.2-15.4-15.9-20.8-25.5c-13.1-23.5-15.7-51.1-23.1-77
			c-13.9-48.9-44.8-91.2-78.6-129.1c-18.7-21-38.6-41.3-62-57S134,172.9,105.9,172C76.4,170.9,46.6,181.4,24.2,200.7L24.2,200.7z"/>
		
			<path id="path608" inkscape:original-d="m 156.71209,491.3523 c 0,0 -25.29144,-19.14354 -37.95865,-33.6404 -16.51589,-18.90142 -22.210486,-36.00125 -30.825277,-54.60832 -16.33598,-35.28404 -34.37854,-86.60119 -47.93856,-121.57202 -13.56003,-34.97084 -0.11842,-37.44284 -3.80131,-49.27826 -3.68288,-11.83541 36.83208,-15.35477 45.31773,-32.90086 8.48566,-17.54609 36.163867,7.89907 66.014887,10.60788 29.85101,2.70883 51.22905,41.79993 76.49341,60.25382 25.26433,18.45385 43.67842,63.96238 43.67842,63.96238 0,0 -26.0741,9.53303 -37.12343,9.07098 -11.0493,-0.46204 -60.42794,100.19558 -61.31937,127.27828 -12.68359,385.33762 -12.53785,20.82652 -12.53785,20.82652 z" inkscape:path-effect="#path-effect610" sodipodi:nodetypes="cssssssscssc" class="st1" d="
			M156.7,491.4c-14.5-8.8-27.4-20.3-38-33.6c-13-16.5-22.1-35.6-30.8-54.6c-18.1-39.6-34.8-80-47.9-121.6c-2.5-8-4.9-16.1-6-24.4
			c-1-8.3-0.7-17,2.2-24.9c3.3-9.2,10-17,18.1-22.5c8.1-5.5,17.6-8.8,27.2-10.4c22.3-3.7,45.4,1.3,66,10.6
			c29.8,13.4,55.1,35.5,76.5,60.3c16.9,19.6,31.6,41.1,43.7,64c-12.9-0.9-26.1,2.3-37.1,9.1c-10.3,6.3-18.6,15.4-25,25.6
			s-10.9,21.5-14.6,32.9c-7.3,22.9-11.4,47-21.8,68.8C165.7,477.8,161.5,484.8,156.7,491.4z"/>
		
			<path id="path4934" inkscape:original-d="m 285.35534,48.304667 c 0,0 39.89843,32.443008 59.84617,48.663009 19.94774,16.219994 35.21953,44.777084 52.82778,67.164144 17.60825,22.38703 31.00369,60.57114 46.50403,90.85521 15.50033,30.28407 13.41286,99.57354 13.41286,99.57354 0,0 14.48742,-49.81874 24.09215,-71.79405 9.60468,-21.97531 11.06494,-62.46138 14.23339,-96.62913 3.1685,-34.16772 -9.53635,-66.36638 -14.306,-99.551086 C 477.19603,53.401606 430.98791,46.109113 405.48823,24.210723 379.98855,2.3123368 285.35534,48.304667 285.35534,48.304667 Z" inkscape:path-effect="#path-effect4936" sodipodi:nodetypes="cssscssssc" class="st2" d="
			M285.4,48.3c21.7,13.8,41.9,30.2,59.8,48.7c19.9,20.4,37.1,43.4,52.8,67.2c18.8,28.5,35.7,58.5,46.5,90.9
			c10.7,32,15.2,65.9,13.4,99.6c10-23.2,18-47.3,24.1-71.8c7.8-31.6,12.3-64.1,14.2-96.6c2-33.9,0.9-69.2-14.3-99.6
			c-15.2-30.3-44-53-76.5-62.4C364.7,12.4,318.4,21.7,285.4,48.3z"/>
	</g>
</g>
</svg>
